HIERARCHY
ROOT Hips
{
	OFFSET 49.866600 -7.994054 86.598801
	CHANNELS 6 Xposition Yposition Zposition Xrotation Yrotation Zrotation
	JOINT spine
	{
		OFFSET 0.000000 -0.393701 6.846367
		CHANNELS 3 Xrotation Yrotation Zrotation
		JOINT spine1
		{
			OFFSET 0.000000 -0.000002 9.496208
			CHANNELS 3 Xrotation Yrotation Zrotation
			JOINT spine2
			{
				OFFSET 0.000000 -0.000001 9.099091
				CHANNELS 3 Xrotation Yrotation Zrotation
				JOINT Neck
				{
					OFFSET 0.000000 -1.113784 23.361206
					CHANNELS 3 Xrotation Yrotation Zrotation
					JOINT Head
					{
						OFFSET 0.000000 -0.000001 7.058014
						CHANNELS 3 Xrotation Yrotation Zrotation
						End Site
						{
							OFFSET 0.000000 5.634187 17.084396
						}
					}
				}
				JOINT RightShoulder
				{
					OFFSET -3.831360 0.533489 9.826309
					CHANNELS 3 Xrotation Yrotation Zrotation
					JOINT RightArm
					{
						OFFSET 0.000000 -0.000002 12.888107
						CHANNELS 3 Xrotation Yrotation Zrotation
						JOINT RightArmRoll
						{
							OFFSET 0.000000 -0.000001 6.506165
							CHANNELS 3 Xrotation Yrotation Zrotation
							JOINT RightForeArm
							{
								OFFSET 0.000000 -0.000003 18.950104
								CHANNELS 3 Xrotation Yrotation Zrotation
								JOINT RightForeArmRoll
								{
									OFFSET 0.000000 -0.000001 7.300934
									CHANNELS 3 Xrotation Yrotation Zrotation
									JOINT RightHand
									{
										OFFSET 0.000000 -0.000002 14.651398
										CHANNELS 3 Xrotation Yrotation Zrotation
										End Site
										{
											OFFSET 0.000000 0.000000 0.100006
										}
									}
								}
							}
						}
					}
				}
				JOINT LeftShoulder
				{
					OFFSET 3.831360 0.533489 9.826309
					CHANNELS 3 Xrotation Yrotation Zrotation
					JOINT LeftArm
					{
						OFFSET 0.000000 -0.000002 12.888107
						CHANNELS 3 Xrotation Yrotation Zrotation
						JOINT LeftArmRoll
						{
							OFFSET 0.000000 -0.000001 6.506165
							CHANNELS 3 Xrotation Yrotation Zrotation
							JOINT LeftForeArm
							{
								OFFSET 0.000000 -0.000003 18.950104
								CHANNELS 3 Xrotation Yrotation Zrotation
								JOINT LeftForeArmRoll
								{
									OFFSET 0.000000 -0.000001 7.300934
									CHANNELS 3 Xrotation Yrotation Zrotation
									JOINT LeftHand
									{
										OFFSET 0.000000 -0.000002 14.651398
										CHANNELS 3 Xrotation Yrotation Zrotation
										End Site
										{
											OFFSET 0.000000 0.000000 0.100006
										}
									}
								}
							}
						}
					}
				}
			}
		}
	}
	JOINT RightUpLeg
	{
		OFFSET -6.068371 0.933477 -1.112778
		CHANNELS 3 Xrotation Yrotation Zrotation
		JOINT RightUpLegRoll
		{
			OFFSET 0.000000 -0.000003 17.179596
			CHANNELS 3 Xrotation Yrotation Zrotation
			JOINT RightLeg
			{
				OFFSET 0.000000 0.000003 -21.274300
				CHANNELS 3 Xrotation Yrotation Zrotation
				JOINT RightLegRoll
				{
					OFFSET 0.000000 -0.000003 21.343903
					CHANNELS 3 Xrotation Yrotation Zrotation
					JOINT RightFoot
					{
						OFFSET 0.000000 -0.000003 17.765198
						CHANNELS 3 Xrotation Yrotation Zrotation
						JOINT RightToeBase
						{
							OFFSET 0.000000 -0.000002 14.850807
							CHANNELS 3 Xrotation Yrotation Zrotation
							End Site
							{
								OFFSET 0.006294 0.829004 7.192123
							}
						}
					}
				}
			}
		}
	}
	JOINT LeftUpLeg
	{
		OFFSET 6.068371 0.933477 -1.112778
		CHANNELS 3 Xrotation Yrotation Zrotation
		JOINT LeftUpLegRoll
		{
			OFFSET 0.000000 -0.000003 17.179703
			CHANNELS 3 Xrotation Yrotation Zrotation
			JOINT LeftLeg
			{
				OFFSET 0.000000 -0.000003 21.274200
				CHANNELS 3 Xrotation Yrotation Zrotation
				JOINT LeftLegRoll
				{
					OFFSET 0.000000 -0.000004 21.541199
					CHANNELS 3 Xrotation Yrotation Zrotation
					JOINT LeftFoot
					{
						OFFSET 0.000000 -0.000003 17.567902
						CHANNELS 3 Xrotation Yrotation Zrotation
						JOINT LeftToeBase
						{
							OFFSET 0.000000 -0.000002 14.850800
							CHANNELS 3 Xrotation Yrotation Zrotation
							End Site
							{
								OFFSET -0.028210 0.829003 7.192139
							}
						}
					}
				}
			}
		}
	}
}
MOTION
Frames: 10
Frame Time: 0.041667
49.619102 -6.489357 86.552803 -3.640564 0.068469 -2.160454 -1.567960 -1.613477 1.284890 0.898500 -3.245292 2.543388 2.543976 -3.214755 2.582045 5.529969 17.911532 -0.297295 10.802631 -9.437501 -1.129648 -9.613913 -46.887978 -10.527560 -52.131152 -157.792424 -80.898133 -0.000004 -0.000009 -0.000006 47.995039 -10.229987 6.386310 -0.000002 0.000015 -3.010517 -5.000227 -7.998778 0.000175 -27.483170 74.066394 31.641821 -62.973613 159.069901 66.338984 0.000002 -0.000000 -0.000000 32.384072 22.302717 -4.917299 -0.000001 -0.000009 3.010090 -5.000228 7.998741 -0.000165 -12.742563 -180.376499 -2.576840 -179.999991 0.000005 -1.348001 155.971154 -3.287828 -1.177696 -0.000005 0.000001 0.738030 72.383428 7.606281 -0.153165 25.456960 -7.355615 0.000001 -10.566321 175.534701 -0.401299 -0.000003 -0.000005 -0.722328 -24.728987 0.786609 1.261752 -0.000004 -0.000000 -0.368102 74.482243 -5.415683 -6.135438 25.456965 7.355624 -0.000004 
49.627705 -6.478586 86.551399 -3.641981 0.063665 -2.165797 -1.566200 -1.612418 1.285368 0.900687 -3.242181 2.544553 2.546161 -3.211614 2.583179 5.511410 17.924312 -0.292182 10.818588 -9.451236 -1.125414 -9.578555 -46.881257 -10.482106 -51.922562 -157.991961 -81.359123 -0.000002 -0.000010 -0.000008 48.070185 -10.256980 6.481420 -0.000000 0.000014 -3.010519 -5.000229 -7.998778 0.000175 -27.496088 74.068170 31.655830 -62.846784 159.333123 66.103513 0.000001 -0.000000 -0.000000 31.913267 22.415943 -4.862836 -0.000001 -0.000011 3.010090 -5.000227 7.998741 -0.000165 -12.753961 -180.374532 -2.579316 -179.999991 0.000005 -1.348000 155.960635 -3.283903 -1.177669 -0.000004 0.000001 0.738030 72.381325 7.605694 -0.152113 25.456959 -7.355614 -0.000000 -10.560693 175.535602 -0.405430 -0.000004 -0.000005 -0.722337 -24.721515 0.791414 1.261761 -0.000003 -0.000000 -0.367810 74.478876 -5.416073 -6.133456 25.456964 7.355623 -0.000005 
49.622803 -6.480644 86.553391 -3.643033 0.058555 -2.171462 -1.564469 -1.611280 1.285768 0.902750 -3.238879 2.545568 2.548226 -3.208291 2.584157 5.491905 17.938510 -0.286397 10.835608 -9.466537 -1.120474 -9.541925 -46.873621 -10.434977 -51.710611 -158.189476 -81.815100 -0.000002 -0.000008 -0.000006 48.145614 -10.283671 6.576527 -0.000001 0.000018 -3.010510 -5.000227 -7.998783 0.000173 -27.513824 74.070608 31.675023 -62.722761 159.595662 65.868493 -0.000001 0.000000 -0.000000 31.438664 22.528097 -4.806643 -0.000002 -0.000009 3.010090 -5.000227 7.998741 -0.000165 -12.766359 -180.372551 -2.581929 -179.999991 0.000005 -1.348001 155.949324 -3.279958 -1.177686 -0.000004 0.000001 0.738013 72.379412 7.605061 -0.151081 25.456959 -7.355614 0.000000 -10.555161 175.536517 -0.409625 -0.000003 -0.000004 -0.722345 -24.713544 0.796447 1.261767 -0.000004 -0.000001 -0.367509 74.475297 -5.416477 -6.131481 25.456965 7.355625 -0.000005 
49.624004 -6.475457 86.551506 -3.643650 0.053202 -2.177332 -1.562799 -1.610072 1.286098 0.904711 -3.235428 2.546425 2.550180 -3.204810 2.584972 5.471337 17.953736 -0.280005 10.853682 -9.483030 -1.114928 -9.504497 -46.864739 -10.386732 -51.495914 -158.385325 -82.257532 -0.000002 -0.000009 -0.000009 48.219086 -10.310620 6.670559 -0.000001 0.000014 -3.010513 -5.000227 -7.998783 0.000175 -27.533165 74.072828 31.695961 -62.599777 159.855783 65.634006 0.000002 0.000000 -0.000000 30.967473 22.639120 -4.749705 -0.000002 -0.000008 3.010090 -5.000227 7.998741 -0.000165 -12.779759 -180.371567 -2.584402 -179.999991 0.000005 -1.347003 155.937399 -3.276007 -1.177755 -0.000005 0.000001 0.737984 72.377500 7.604395 -0.149855 25.456960 -7.355613 -0.000000 -10.549933 175.537419 -0.413724 -0.000003 -0.000005 -0.722354 -24.705382 0.801592 1.261773 -0.000003 -0.000001 -0.367203 74.471526 -5.416915 -6.129423 25.456960 7.355625 -0.000005 
49.620903 -6.475927 86.553696 -3.643800 0.047673 -2.183284 -1.561174 -1.608803 1.286368 0.906597 -3.231867 2.547125 2.552066 -3.201218 2.585637 5.449650 17.969690 -0.273111 10.872699 -9.500337 -1.108918 -9.466711 -46.854275 -10.337929 -51.280316 -158.578114 -82.680888 -0.000002 -0.000008 -0.000007 48.288399 -10.338348 6.762347 -0.000002 0.000017 -3.010502 -5.000227 -7.998782 0.000174 -27.551643 74.074283 31.716007 -62.477120 160.111136 65.402429 0.000001 0.000000 -0.000000 30.506883 22.748818 -4.692999 -0.000001 -0.000010 3.010089 -5.000228 7.998745 -0.000165 -12.794053 -180.369600 -2.587111 -179.999991 0.000005 -1.347003 155.925064 -3.272037 -1.177827 -0.000004 0.000001 0.737948 72.375594 7.603763 -0.148724 25.456957 -7.355614 0.000000 -10.545190 175.539318 -0.417787 -0.000002 -0.000004 -0.722365 -24.696912 0.806736 1.261777 -0.000005 -0.000001 -0.366897 74.467524 -5.417292 -6.127466 25.456965 7.355625 -0.000005 
49.628506 -6.468286 86.556091 -3.643411 0.042032 -2.189193 -1.559623 -1.607485 1.286588 0.908432 -3.228226 2.547680 2.553899 -3.197568 2.586158 5.426730 17.985973 -0.265782 10.892648 -9.518079 -1.102563 -9.429095 -46.841987 -10.289185 -51.065445 -158.767761 -83.078022 -0.000002 -0.000007 -0.000010 48.351507 -10.367408 6.850841 -0.000000 0.000013 -3.010498 -5.000229 -7.998780 0.000174 -27.566422 74.074248 31.732096 -62.352981 160.360097 65.174007 0.000001 0.000000 -0.000000 30.064194 22.856986 -4.637578 -0.000002 -0.000008 3.010090 -5.000227 7.998741 -0.000165 -12.809153 -180.367619 -2.589769 -179.999991 0.000005 -1.346006 155.912551 -3.268062 -1.177908 -0.000004 0.000001 0.737909 72.373600 7.603166 -0.147481 25.456960 -7.355615 -0.000000 -10.541263 175.540233 -0.421274 -0.000003 -0.000004 -0.722381 -24.688342 0.811767 1.261781 -0.000004 -0.000001 -0.366596 74.463166 -5.417622 -6.125724 25.456959 7.355624 -0.000005 
49.626205 -6.466048 86.556602 -3.642437 0.036346 -2.194946 -1.558133 -1.606116 1.286757 0.910239 -3.224554 2.548084 2.555702 -3.193877 2.586524 5.402515 18.002388 -0.258109 10.913411 -9.535882 -1.096004 -9.392021 -46.827336 -10.240985 -50.853070 -158.955045 -83.441416 0.000001 -0.000009 -0.000009 48.406049 -10.398505 6.934961 -0.000000 0.000013 -3.010497 -5.000229 -7.998776 0.000176 -27.574638 74.072008 31.741132 -62.226227 160.600246 64.950687 0.000004 0.000000 0.000000 29.646648 22.963600 -4.584611 -0.000001 -0.000010 3.010090 -5.000227 7.998739 -0.000165 -12.824850 -180.365652 -2.592321 -179.999991 0.000005 -1.346006 155.900024 -3.264087 -1.176990 -0.000004 0.000001 0.737872 72.371598 7.602570 -0.146337 25.456957 -7.355614 -0.000000 -10.538128 175.542159 -0.424434 -0.000003 -0.000004 -0.722402 -24.679674 0.816569 1.261782 -0.000004 -0.000001 -0.366306 74.458392 -5.417922 -6.124193 25.456964 7.355624 -0.000004 
49.622803 -6.450376 86.553101 -3.640829 0.030678 -2.200438 -1.556720 -1.604718 1.286894 0.912043 -3.220894 2.548347 2.557505 -3.190195 2.586741 5.376899 18.018442 -0.250156 10.934880 -9.553381 -1.089358 -9.356018 -46.810087 -10.193930 -50.645764 -159.138708 -83.766328 0.000000 -0.000008 -0.000004 48.450077 -10.432179 7.013653 0.000000 0.000013 -3.010491 -5.000230 -7.998778 0.000175 -27.573491 74.066838 31.740138 -62.095770 160.829208 64.734586 0.000002 -0.000000 -0.000000 29.261770 23.068378 -4.535348 -0.000001 -0.000009 3.010089 -5.000227 7.998741 -0.000165 -12.841145 -180.362702 -2.594935 -179.999991 0.000005 -1.346006 155.887702 -3.260119 -1.177057 -0.000004 0.000001 0.737842 72.369399 7.602019 -0.145172 25.456959 -7.355614 -0.000000 -10.536192 175.544085 -0.426908 -0.000003 -0.000004 -0.722431 -24.671002 0.821031 1.261782 -0.000005 -0.000001 -0.366030 74.453256 -5.418104 -6.122967 25.456965 7.355624 -0.000005 
49.622803 -6.451289 86.554802 -3.638517 0.025095 -2.205524 -1.555389 -1.603300 1.286990 0.913867 -3.217292 2.548472 2.559319 -3.186575 2.586830 5.349822 18.034035 -0.242041 10.957037 -9.570184 -1.082763 -9.321540 -46.789986 -10.148616 -50.446322 -159.319039 -84.046810 -0.000001 -0.000009 -0.000008 48.481192 -10.468958 7.085588 -0.000000 0.000013 -3.010491 -5.000228 -7.998781 0.000175 -27.560273 74.058122 31.726177 -61.959726 161.045561 64.525767 0.000001 0.000000 -0.000000 28.916654 23.171048 -4.490820 -0.000002 -0.000008 3.010090 -5.000228 7.998741 -0.000165 -12.857941 -180.360735 -2.597092 -179.999991 0.000005 -1.344995 155.875777 -3.256173 -1.177104 -0.000004 0.000002 0.737823 72.367022 7.601577 -0.144180 25.456959 -7.355616 -0.000000 -10.535563 175.546066 -0.428563 -0.000003 -0.000004 -0.722469 -24.662425 0.825041 1.261782 -0.000005 -0.000000 -0.365774 74.447669 -5.418199 -6.122048 25.456962 7.355623 -0.000004 
49.616905 -6.442727 86.553604 -3.635480 0.019661 -2.210111 -1.554147 -1.601861 1.287064 0.915738 -3.213771 2.548451 2.561194 -3.183055 2.586777 5.321175 18.048679 -0.233827 10.979776 -9.585909 -1.076349 -9.289023 -46.766527 -10.105529 -50.256498 -159.497389 -84.275143 -0.000001 -0.000007 -0.000009 48.497280 -10.509642 7.149901 -0.000001 0.000013 -3.010491 -5.000230 -7.998781 0.000175 -27.532238 74.045118 31.696278 -61.817187 161.246519 64.327268 -0.000001 0.000000 -0.000000 28.618785 23.271510 -4.452442 -0.000001 -0.000009 3.010090 -5.000228 7.998739 -0.000165 -12.875037 -180.357784 -2.599185 -179.999991 0.000005 -1.344995 155.864439 -3.253139 -1.176522 -0.000005 0.000001 0.737820 72.364372 7.601250 -0.143250 25.456959 -7.355615 -0.000000 -10.536534 175.548033 -0.429251 -0.000004 -0.000004 -0.722518 -24.654051 0.828481 1.261781 -0.000004 -0.000001 -0.365543 74.441508 -5.418185 -6.121543 25.456959 7.355624 -0.000004 
